<svg xmlns="http://www.w3.org/2000/svg" xmlns:xlink="http://www.w3.org/1999/xlink" width="114" height="24" viewBox="0 0 114 24">
  <defs>
    <linearGradient id="a" x1="50%" x2="50%" y1="0%" y2="100%">
      <stop offset="0%" stop-color="#FAFBFC"/>
      <stop offset="100%" stop-color="#EFF3F6"/>
    </linearGradient>
    <rect id="b" width="113" height="24" rx="5"/>
  </defs>
  <g fill="none" fill-rule="evenodd">
    <use fill="url(#a)" xlink:href="#b"/>
    <rect width="113" height="23" x=".5" y=".5" stroke="#E0E0E0" rx="5"/>
    <text fill="#000" font-family='-apple-system,BlinkMacSystemFont,"Segoe UI",Helvetica,Arial,sans-serif,"Apple Color Emoji","Segoe UI Emoji","Segoe UI Symbol"' font-size="11">
      <tspan x="24.1" y="16">Staging Release</tspan>
    </text>
    <path fill="#000" fill-rule="nonzero" d="M9.7 6.8a1.7 1.7 0 0 0-.9 3.1v5.5a1.7 1.7 0 0 0 .9 3.1 1.7 1.7 0 0 0 .8-3.1V9.9a1.7 1.7 0 0 0-.8-3zm0 10.9a.8.8 0 1 1 0-1.7.8.8 0 0 1 0 1.7zm0-8.4a.8.8 0 1 1 0-1.6.8.8 0 0 1 0 1.6zm7.5 6.1v-5.2c0-2.5-2.5-2.5-2.5-2.5h-.9V6l-2.5 2.5 2.5 2.5V9.3h.9c.7 0 .8.9.8.9v5.2a1.7 1.7 0 0 0 .8 3.1 1.7 1.7 0 0 0 .9-3.1zm-.9 2.3a.8.8 0 1 1 0-1.7.8.8 0 0 1 0 1.7z"/>
  </g>
</svg>
